<?xml version="1.0" encoding="utf-8"?>
<svg xmlns="http://www.w3.org/2000/svg" viewBox="147.196 328.361 6000 1920" xmlns:bx="https://boxy-svg.com">
  <defs>
    <clipPath id="artboard-5613253376456818505">
      <rect x="0" y="0" width="1920" height="1920"/>
    </clipPath>
    <linearGradient id="11363329496754807854" gradientUnits="userSpaceOnUse" x1="0" y1="0" x2="1" y2="0" gradientTransform="matrix(1920,1920,-1920,1920,0,0)">
      <stop stop-color="#4f3e35"/>
      <stop offset="1" stop-color="#30251a"/>
    </linearGradient>
    <linearGradient id="9679573806548966146" gradientUnits="userSpaceOnUse" x1="0" y1="0" x2="1" y2="0" gradientTransform="matrix(-99.391421259,-0.613302488,0.613302488,-99.391421259,53.401173583,-96.490737895)">
      <stop stop-color="#ede0c6"/>
      <stop offset="1" stop-color="#4b3c30"/>
    </linearGradient>
    <linearGradient id="11194750890796850795" gradientUnits="userSpaceOnUse" x1="0" y1="0" x2="1" y2="0" gradientTransform="matrix(-90.449121212,22.966317408,-23.038730303,-90.164831121,66.314014847,71.579690206)">
      <stop stop-color="#ede0c6"/>
      <stop offset="1" stop-color="#4b3c30"/>
    </linearGradient>
    <linearGradient id="6461996713604946034" gradientUnits="userSpaceOnUse" x1="0" y1="0" x2="1" y2="0" gradientTransform="matrix(-1,0,0,-1,1,0.5)">
      <stop stop-color="#ede0c6"/>
      <stop offset="1" stop-color="#4b3c30"/>
    </linearGradient>
    <linearGradient id="8361705244564380877" gradientUnits="userSpaceOnUse" x1="0" y1="0" x2="1" y2="0" gradientTransform="matrix(-57.4142027,-25.911090273,25.911090273,-57.4142027,1141.046475644,829.671302105)">
      <stop stop-color="#ede0c6"/>
      <stop offset="1" stop-color="#4b3c30"/>
    </linearGradient>
    <linearGradient id="2984554983185756690" gradientUnits="userSpaceOnUse" x1="0" y1="0" x2="1" y2="0" gradientTransform="matrix(41.646836128,-17.839046017,17.839046017,41.646836128,490.559801708,893.883025409)">
      <stop stop-color="#ede0c6"/>
      <stop offset="1" stop-color="#4b3c30"/>
    </linearGradient>
    <linearGradient id="16446574381693081561" gradientUnits="userSpaceOnUse" x1="0" y1="0" x2="1" y2="0" gradientTransform="matrix(62.912843348,45.107272434,-45.107272434,62.912843348,404.212678496,570.062205783)">
      <stop stop-color="#ede0c6"/>
      <stop offset="1" stop-color="#4b3c30"/>
    </linearGradient>
    <bx:export>
      <bx:file format="svg"/>
    </bx:export>
  </defs>
  <g transform="matrix(1, 0, 0, 1, 207.444778, 320.618469)">
    <g transform="matrix(1, 0, 0, 1, -60.248756, 7.742532)" clip-path="url(#artboard-5613253376456818505)">
      <g>
        <path d="M-0.00000000000022737367544323206,300.0000000000002 C-0.00000000000022737367544323206,134.46456666629592 134.46456666629547,0.00000000000011368683772161603 299.99999999999966,0.00000000000011368683772161603 L1619.999999999999,0.00000000000011368683772161603 C1785.5354333337034,0.00000000000011368683772161603 1919.999999999999,134.46456666629592 1919.999999999999,300.0000000000002 L1919.999999999999,1620.0000000000005 C1919.999999999999,1785.5354333337048 1785.5354333337034,1920.0000000000005 1619.999999999999,1920.0000000000005 L299.99999999999966,1920.0000000000005 C134.46456666629547,1920.0000000000005 -0.00000000000022737367544323206,1785.5354333337048 -0.00000000000022737367544323206,1620.0000000000005 L-0.00000000000022737367544323206,300.0000000000002 Z" transform="matrix(1,0,0,1,0,0)" fill="url(#11363329496754807854)" stroke-width="2" stroke="#ede0c6"/>
      </g>
      <g>
        <g transform="matrix(1.05,0,0,1.1,-74.600090008,-92.034420565)">
          <polyline points="9998470 9999190 -10002000 9999190 -10002000 -10000000 9998470 -10000000" fill="#000000" fill-opacity="0"/>
        </g>
        <g transform="matrix(1.05,0,0,1.1,-74.600090008,-92.034420565)">
          <path d="M1071.01872544,1084.36236354 C1071.01872544,916.57160721 1207.3152928,780.27503984 1375.10604913,780.27503984 C1470.0290814936045,780.27503984 1554.8726467358374,823.8956827255323 1610.66174181,892.16196545 C1610.66174181,892.16196545 1547.183700864905,935.8989626242404 1494.5637352007868,972.15463868631 C1464.6491471619029,940.3232683617542 1422.1763049853232,920.42716297 1375.10604913,920.42716297 C1284.6491009200001,920.42716297 1211.17084856,993.90541532 1211.17084856,1084.36236354 C1211.17084856,1174.81931175 1284.6491009200001,1248.29756411 1375.10604913,1248.29756411 C1411.9377892679736,1248.29756411 1445.9546166349473,1236.1155406762084 1473.3424849635755,1215.5655400779765 C1495.5190873685085,1249.472892594249 1527.207507931606,1284.0081341661607 1572.29920193,1315.74858675 C1519.1849873871026,1361.0708024984822 1450.3087518815682,1388.44968723 1375.10604913,1388.44968723 C1207.3152928,1388.44968723 1071.01872544,1252.15311987 1071.01872544,1084.36236354 Z" fill="#ede0c6" stroke-width="5" stroke-linejoin="round" stroke="#000000"/>
        </g>
        <g transform="matrix(1.05,0,0,1.1,-74.600090008,-92.034420565)">
          <path d="M110.1886625928314,-57.67548465740151 C65.25502612801752,-52.69721993841273 28.525471930407054,-33.47205838594556 0,0 C0,0 -29.505724942315283,-1.3019138033311037 -29.505724942315283,-1.3019138033311037 C-29.505724942315283,-1.3019138033311037 -41.37370572023474,-177.703411499965 -41.37370572023474,-177.703411499965 C-41.37370572023474,-177.703411499965 -0.0000000000018189894035458565,-171.50396229277305 -0.0000000000018189894035458565,-171.50396229277305 C31.899432675788244,-186.25520310808375 67.17000078757188,-195.05474666662488 105.81170433534908,-197.90259296839645" transform="matrix(1,0,0,1,1249.733392469,978.798378787)" fill="url(#9679573806548966146)" stroke-width="5" stroke-linejoin="round" stroke="#000000"/>
        </g>
        <g transform="matrix(1.05,0,0,1.1,-74.600090008,-92.034420565)">
          <path d="M61.70270056287605,45.78012872978667 C27.611226398853738,28.912136782726378 13.598852493448101,13.016413699964648 1.7108298164974318,-0.0000000000003663654341125459 C-2.9013867024567555,-5.050000316783018 -14.519386279507732,-22.676691358232905 -17.673854335795312,-28.076920635657938 L-27.540003493368623,166.84007421247753 C29.641705880274323,198.5523261759666 97.51443951315684,212.3525484211955 166.051339250225,209.11325497803512" transform="matrix(0.939815172,0,0,0.942778413,1248.12552865,1189.926348289)" fill="url(#11194750890796850795)" stroke-width="5" stroke-linejoin="round" stroke="#000000"/>
        </g>
        <g transform="matrix(1.05,0,0,1.1,-74.600090008,-92.034420565)">
          <path d="M1071.0187254400003,1084.3623635399997 C1071.0187254400003,846.5636862042902 1071.0187254400003,541.9297789299999 1071.0187254400003,541.9297789299999 C1071.0187254400003,541.9297789299999 1249.7333924700004,541.9297789299999 1249.7333924700004,541.9297789299999 C1249.7333924700004,541.9297789299999 1249.7333924700004,949.6604672199999 1249.7333924700004,1189.9263482899999 C1249.7333931000003,1189.9274714499998 1249.7333937400003,1189.92859461 1249.7333943700003,1189.9297177699998 C1249.7341010700002,1190.7631247299998 1249.9972027700003,1345.9568768199997 1347.9496989800002,1387.2503594899997 C1313.2104235900003,1384.1679086799998 1280.1398951600002,1375.2294591799998 1249.73339288,1361.4303106699997 C1144.3954027238865,1313.6255820998783 1071.029865891841,1207.4849642939491 1071.018726708632,1084.3904018971566 C1071.0187258628835,1084.3810558756763 1071.0187254400003,1084.3717097566962 1071.0187254400003,1084.3623635399997 Z" fill="url(#6461996713604946034)" stroke-width="5" stroke-linejoin="round" stroke="#000000"/>
        </g>
        <g transform="matrix(1.05,0,0,1.1,-74.600090008,-92.034420565)">
          <path d="M1249.7333924685458,1045.9437936061322 L1249.7333924685458,541.92977893368 L1071.0187254368566,541.92977893368 L1071.0187254368566,1045.9437936061322" fill="url(#8361705244564380877)" stroke-width="5" stroke-linejoin="round" stroke="#000000"/>
        </g>
        <g transform="matrix(1.05,0,0,1.1,-74.600090008,-92.034420565)">
          <path d="M351.8119225241257,541.9297789336803 L530.5265895558143,541.9297789336803 L530.5265895558143,1351.4020943125047 L351.8119225241257,1351.4020943125047 L351.8119225241257,541.9297789336803 Z" fill="url(#2984554983185756690)" stroke-width="5" stroke-linejoin="round" stroke="#000000"/>
        </g>
        <g transform="matrix(1.05,0,0,1.1,-74.600090008,-92.034420565)">
          <path d="M0,0 C0,0 200.5761598597524,0 200.5761598597524,0 C200.5761598597524,0 462.5383611125839,513.8229433102393 462.5383611125839,513.8229433102393 C462.5383611125839,513.8229433102393 370.8678175318098,715.3153759778316 370.8678175318098,715.3153759778316 C370.8678175318098,715.3153759778316 0,0 0,0 Z" transform="matrix(1,0,0,1,352.85114189,541.929778934)" fill="url(#16446574381693081561)" stroke-width="5" stroke-linejoin="round" stroke="#000000"/>
        </g>
        <g transform="matrix(1.05,0,0,1.1,-74.600090008,-92.034420565)">
          <path d="M0,0 C-5,0 -200.57615985975235,0 -200.57615985975235,0 C-200.57615985975235,0 -526.0144330466761,715.3153759778321 -526.0144330466761,715.3153759778321 C-526.0144330466761,715.3153759778321 -359.34558093224956,715.3153759778307 -359.34558093224956,715.3153759778307 C-359.34558093224956,715.3153759778307 0,0 0,0 Z" transform="matrix(1,0,0,1,1249.733392469,541.929778934)" fill="#ede0c6" stroke-width="5" stroke-linejoin="round" stroke="#000000"/>
        </g>
        <g transform="matrix(1.05,0,0,1.1,-74.600090008,-92.034420565)">
          <g>
            <path d="M1719.5826099800001,1042.38609359 C1719.5826099800001,1042.38609359 1731.74535984,1054.56278346 1731.74535934,1054.56278455 C1690.7076392200001,1144.11907813 1673.91443736,1208.57809182 1681.36575329,1247.93982671 C1637.82831768,1260.03321212 1601.47280056,1282.63613213 1572.29920193,1315.74858675 C1539.32633618,1300.9738579500001 1476.8152322400001,1228.02926248 1472.7428159400001,1216.01336612 C1503.46328085,1185.1840865 1523.3814594,1147.95926591 1532.49735159,1104.33890434 C1571.71126292,1109.1535537500001 1634.07301572,1088.50261684 1719.5826099800001,1042.38609359 ZM1609.47092574,1155.78446422 C1600.33053372,1155.78446422 1592.90578587,1163.20921206 1592.90578587,1172.34960408 C1592.90578587,1181.4899961 1600.33053372,1188.91474395 1609.47092574,1188.91474395 C1618.61131776,1188.91474395 1626.0360656,1181.4899961 1626.0360656,1172.34960408 C1626.0360656,1163.20921206 1618.61131776,1155.78446422 1609.47092574,1155.78446422 Z" fill="#ede0c6" stroke-width="5" stroke-linejoin="round" stroke="#000000"/>
          </g>
          <g>
            <path d="M1725.6639849097246,1048.4744385218062 L1620.7978425536596,1160.2681466368401" fill="none" stroke-width="5" stroke="#000000"/>
          </g>
        </g>
        <g transform="matrix(1.05,0,0,1.1,-74.600090008,-92.034420565)">
          <path d="M1306.114662808518,1233.0868654201336 C1309.5543299780388,1234.8632046060434 1309.1346549676311,1234.6572708060814 1312.9887598643704,1236.0948539240273" fill="none" stroke-width="5" stroke-linecap="round" stroke="#000000"/>
        </g>
      </g>
    </g>
    <path d="M 1980.1 1405.87 L 1980.1 509.87 L 2100.42 509.87 L 2677.7 1221.55 L 2614.98 1221.55 L 2614.98 509.87 L 2762.18 509.87 L 2762.18 1405.87 L 2641.86 1405.87 L 2064.58 694.19 L 2127.3 694.19 L 2127.3 1405.87 L 1980.1 1405.87 Z M 3299.71 1413.55 C 3230.59 1413.55 3169.15 1398.62 3115.39 1368.75 C 3061.63 1338.88 3019.18 1297.71 2988.03 1245.23 C 2956.89 1192.75 2941.31 1132.8 2941.31 1065.39 C 2941.31 997.123 2956.89 936.963 2988.03 884.91 C 3019.18 832.857 3061.63 791.897 3115.39 762.03 C 3169.15 732.163 3230.59 717.23 3299.71 717.23 C 3368.83 717.23 3430.49 732.163 3484.67 762.03 C 3538.86 791.897 3581.31 832.857 3612.03 884.91 C 3642.75 936.963 3658.11 997.123 3658.11 1065.39 C 3658.11 1132.8 3642.75 1192.75 3612.03 1245.23 C 3581.31 1297.71 3538.65 1338.88 3484.03 1368.75 C 3429.42 1398.62 3367.98 1413.55 3299.71 1413.55 Z M 3299.71 1289.39 C 3341.53 1289.39 3378.65 1280.43 3411.07 1262.51 C 3443.5 1244.59 3469.1 1218.56 3487.87 1184.43 C 3506.65 1150.3 3516.03 1110.62 3516.03 1065.39 C 3516.03 1019.31 3506.65 979.417 3487.87 945.71 C 3469.1 912.003 3443.5 886.19 3411.07 868.27 C 3378.65 850.35 3341.53 841.39 3299.71 841.39 C 3258.75 841.39 3222.27 850.35 3190.27 868.27 C 3158.27 886.19 3132.67 912.003 3113.47 945.71 C 3094.27 979.417 3084.67 1019.31 3084.67 1065.39 C 3084.67 1110.62 3094.27 1150.3 3113.47 1184.43 C 3132.67 1218.56 3158.27 1244.59 3190.27 1262.51 C 3222.27 1280.43 3258.75 1289.39 3299.71 1289.39 Z M 4065.16 1413.55 C 3993.48 1413.55 3938.02 1394.78 3898.76 1357.23 C 3859.51 1319.68 3839.88 1264.64 3839.88 1192.11 L 3839.88 575.15 L 3981.96 575.15 L 3981.96 1188.27 C 3981.96 1222.4 3990.71 1248.64 4008.2 1266.99 C 4025.7 1285.34 4050.23 1294.51 4081.8 1294.51 C 4118.5 1294.51 4149.22 1284.7 4173.96 1265.07 L 4216.2 1367.47 C 4197.43 1382.83 4174.6 1394.35 4147.72 1402.03 C 4120.84 1409.71 4093.32 1413.55 4065.16 1413.55 Z M 3725.96 841.39 L 3725.96 724.91 L 4170.12 724.91 L 4170.12 841.39 L 3725.96 841.39 Z M 4644.97 1413.55 C 4570.73 1413.55 4505.66 1398.62 4449.77 1368.75 C 4393.87 1338.88 4350.57 1297.71 4319.85 1245.23 C 4289.13 1192.75 4273.77 1132.8 4273.77 1065.39 C 4273.77 997.977 4288.7 938.03 4318.57 885.55 C 4348.43 833.07 4389.61 791.897 4442.09 762.03 C 4494.57 732.163 4554.09 717.23 4620.65 717.23 C 4687.21 717.23 4746.09 731.95 4797.29 761.39 C 4848.49 790.83 4888.59 832.003 4917.61 884.91 C 4946.62 937.817 4961.13 999.683 4961.13 1070.51 C 4961.13 1076.48 4960.91 1083.52 4960.49 1091.63 C 4960.06 1099.74 4959.42 1107.2 4958.57 1114.03 L 4386.41 1114.03 L 4386.41 1012.91 L 4884.33 1012.91 L 4828.01 1046.19 C 4828.86 1005.23 4820.33 968.963 4802.41 937.39 C 4784.49 905.817 4759.95 881.07 4728.81 863.15 C 4697.66 845.23 4661.61 836.27 4620.65 836.27 C 4579.69 836.27 4543.63 845.23 4512.49 863.15 C 4481.34 881.07 4457.02 906.03 4439.53 938.03 C 4422.03 970.03 4413.29 1007.36 4413.29 1050.03 L 4413.29 1073.07 C 4413.29 1115.74 4423.1 1153.5 4442.73 1186.35 C 4462.35 1219.2 4489.87 1244.59 4525.29 1262.51 C 4560.7 1280.43 4601.87 1289.39 4648.81 1289.39 C 4688.06 1289.39 4723.69 1282.99 4755.69 1270.19 C 4787.69 1257.39 4815.63 1238.19 4839.53 1212.59 L 4916.33 1303.47 C 4885.61 1339.31 4847.21 1366.62 4801.13 1385.39 C 4755.05 1404.16 4702.99 1413.55 4644.97 1413.55 Z M 5325.9 1413.55 C 5268.73 1413.55 5214.33 1406.08 5162.7 1391.15 C 5111.07 1376.22 5070.33 1358.08 5040.46 1336.75 L 5099.34 1225.39 C 5129.21 1245.02 5165.47 1261.02 5208.14 1273.39 C 5250.81 1285.76 5293.47 1291.95 5336.14 1291.95 C 5389.05 1291.95 5427.45 1284.91 5451.34 1270.83 C 5475.23 1256.75 5487.18 1236.91 5487.18 1211.31 C 5487.18 1191.68 5479.5 1176.54 5464.14 1165.87 C 5448.78 1155.2 5428.51 1147.1 5403.34 1141.55 C 5378.17 1136 5350.43 1131.1 5320.14 1126.83 C 5289.85 1122.56 5259.55 1116.8 5229.26 1109.55 C 5198.97 1102.3 5171.23 1091.84 5146.06 1078.19 C 5120.89 1064.54 5100.62 1045.76 5085.26 1021.87 C 5069.9 997.977 5062.22 966.403 5062.22 927.15 C 5062.22 884.483 5074.38 847.363 5098.7 815.79 C 5123.02 784.217 5156.94 759.897 5200.46 742.83 C 5243.98 725.763 5295.18 717.23 5354.06 717.23 C 5399.29 717.23 5445.15 722.563 5491.66 733.23 C 5538.17 743.897 5576.78 758.617 5607.5 777.39 L 5547.34 888.75 C 5515.77 869.123 5483.55 855.683 5450.7 848.43 C 5417.85 841.177 5385.21 837.55 5352.78 837.55 C 5302.43 837.55 5264.89 845.23 5240.14 860.59 C 5215.39 875.95 5203.02 896.003 5203.02 920.75 C 5203.02 942.083 5210.7 958.297 5226.06 969.39 C 5241.42 980.483 5261.69 989.23 5286.86 995.63 C 5312.03 1002.03 5339.77 1007.36 5370.06 1011.63 C 5400.35 1015.9 5430.65 1021.66 5460.94 1028.91 C 5491.23 1036.16 5518.97 1046.4 5544.14 1059.63 C 5569.31 1072.86 5589.58 1091.2 5604.94 1114.67 C 5620.3 1138.14 5627.98 1169.07 5627.98 1207.47 C 5627.98 1250.14 5615.39 1286.83 5590.22 1317.55 C 5565.05 1348.27 5530.06 1371.95 5485.26 1388.59 C 5440.46 1405.23 5387.34 1413.55 5325.9 1413.55 Z" style="fill: rgb(60, 47, 36); paint-order: fill; stroke: rgb(0, 0, 0); stroke-width: 0px; text-wrap-mode: nowrap;"/>
  </g>
</svg>