<?xml version="1.0" encoding="utf-8"?>
<svg xmlns="http://www.w3.org/2000/svg" viewBox="147.196 328.361 6000 1920" xmlns:bx="https://boxy-svg.com">
  <defs>
    <clipPath id="artboard-5613253376456818505">
      <rect x="0" y="0" width="1920" height="1920"/>
    </clipPath>
    <linearGradient id="11363329496754807854" gradientUnits="userSpaceOnUse" x1="0" y1="0" x2="1" y2="0" gradientTransform="matrix(1920,1920,-1920,1920,0,0)">
      <stop stop-color="#4f3e35"/>
      <stop offset="1" stop-color="#30251a"/>
    </linearGradient>
    <linearGradient id="9679573806548966146" gradientUnits="userSpaceOnUse" x1="0" y1="0" x2="1" y2="0" gradientTransform="matrix(-99.391421259,-0.613302488,0.613302488,-99.391421259,53.401173583,-96.490737895)">
      <stop stop-color="#ede0c6"/>
      <stop offset="1" stop-color="#4b3c30"/>
    </linearGradient>
    <linearGradient id="11194750890796850795" gradientUnits="userSpaceOnUse" x1="0" y1="0" x2="1" y2="0" gradientTransform="matrix(-90.449121212,22.966317408,-23.038730303,-90.164831121,66.314014847,71.579690206)">
      <stop stop-color="#ede0c6"/>
      <stop offset="1" stop-color="#4b3c30"/>
    </linearGradient>
    <linearGradient id="6461996713604946034" gradientUnits="userSpaceOnUse" x1="0" y1="0" x2="1" y2="0" gradientTransform="matrix(-1,0,0,-1,1,0.5)">
      <stop stop-color="#ede0c6"/>
      <stop offset="1" stop-color="#4b3c30"/>
    </linearGradient>
    <linearGradient id="8361705244564380877" gradientUnits="userSpaceOnUse" x1="0" y1="0" x2="1" y2="0" gradientTransform="matrix(-57.4142027,-25.911090273,25.911090273,-57.4142027,1141.046475644,829.671302105)">
      <stop stop-color="#ede0c6"/>
      <stop offset="1" stop-color="#4b3c30"/>
    </linearGradient>
    <linearGradient id="2984554983185756690" gradientUnits="userSpaceOnUse" x1="0" y1="0" x2="1" y2="0" gradientTransform="matrix(41.646836128,-17.839046017,17.839046017,41.646836128,490.559801708,893.883025409)">
      <stop stop-color="#ede0c6"/>
      <stop offset="1" stop-color="#4b3c30"/>
    </linearGradient>
    <linearGradient id="16446574381693081561" gradientUnits="userSpaceOnUse" x1="0" y1="0" x2="1" y2="0" gradientTransform="matrix(62.912843348,45.107272434,-45.107272434,62.912843348,404.212678496,570.062205783)">
      <stop stop-color="#ede0c6"/>
      <stop offset="1" stop-color="#4b3c30"/>
    </linearGradient>
    <bx:export>
      <bx:file format="svg"/>
    </bx:export>
  </defs>
  <g transform="matrix(1, 0, 0, 1, 207.444778, 320.618469)">
    <g transform="matrix(1, 0, 0, 1, -60.248756, 7.742532)" clip-path="url(#artboard-5613253376456818505)">
      <g>
        <path d="M-0.00000000000022737367544323206,300.0000000000002 C-0.00000000000022737367544323206,134.46456666629592 134.46456666629547,0.00000000000011368683772161603 299.99999999999966,0.00000000000011368683772161603 L1619.999999999999,0.00000000000011368683772161603 C1785.5354333337034,0.00000000000011368683772161603 1919.999999999999,134.46456666629592 1919.999999999999,300.0000000000002 L1919.999999999999,1620.0000000000005 C1919.999999999999,1785.5354333337048 1785.5354333337034,1920.0000000000005 1619.999999999999,1920.0000000000005 L299.99999999999966,1920.0000000000005 C134.46456666629547,1920.0000000000005 -0.00000000000022737367544323206,1785.5354333337048 -0.00000000000022737367544323206,1620.0000000000005 L-0.00000000000022737367544323206,300.0000000000002 Z" transform="matrix(1,0,0,1,0,0)" fill="url(#11363329496754807854)" stroke-width="2" stroke="#ede0c6"/>
      </g>
      <g>
        <g transform="matrix(1.05,0,0,1.1,-74.600090008,-92.034420565)">
          <polyline points="9998470 9999190 -10002000 9999190 -10002000 -10000000 9998470 -10000000" fill="#000000" fill-opacity="0"/>
        </g>
        <g transform="matrix(1.05,0,0,1.1,-74.600090008,-92.034420565)">
          <path d="M1071.01872544,1084.36236354 C1071.01872544,916.57160721 1207.3152928,780.27503984 1375.10604913,780.27503984 C1470.0290814936045,780.27503984 1554.8726467358374,823.8956827255323 1610.66174181,892.16196545 C1610.66174181,892.16196545 1547.183700864905,935.8989626242404 1494.5637352007868,972.15463868631 C1464.6491471619029,940.3232683617542 1422.1763049853232,920.42716297 1375.10604913,920.42716297 C1284.6491009200001,920.42716297 1211.17084856,993.90541532 1211.17084856,1084.36236354 C1211.17084856,1174.81931175 1284.6491009200001,1248.29756411 1375.10604913,1248.29756411 C1411.9377892679736,1248.29756411 1445.9546166349473,1236.1155406762084 1473.3424849635755,1215.5655400779765 C1495.5190873685085,1249.472892594249 1527.207507931606,1284.0081341661607 1572.29920193,1315.74858675 C1519.1849873871026,1361.0708024984822 1450.3087518815682,1388.44968723 1375.10604913,1388.44968723 C1207.3152928,1388.44968723 1071.01872544,1252.15311987 1071.01872544,1084.36236354 Z" fill="#ede0c6" stroke-width="5" stroke-linejoin="round" stroke="#000000"/>
        </g>
        <g transform="matrix(1.05,0,0,1.1,-74.600090008,-92.034420565)">
          <path d="M110.1886625928314,-57.67548465740151 C65.25502612801752,-52.69721993841273 28.525471930407054,-33.47205838594556 0,0 C0,0 -29.505724942315283,-1.3019138033311037 -29.505724942315283,-1.3019138033311037 C-29.505724942315283,-1.3019138033311037 -41.37370572023474,-177.703411499965 -41.37370572023474,-177.703411499965 C-41.37370572023474,-177.703411499965 -0.0000000000018189894035458565,-171.50396229277305 -0.0000000000018189894035458565,-171.50396229277305 C31.899432675788244,-186.25520310808375 67.17000078757188,-195.05474666662488 105.81170433534908,-197.90259296839645" transform="matrix(1,0,0,1,1249.733392469,978.798378787)" fill="url(#9679573806548966146)" stroke-width="5" stroke-linejoin="round" stroke="#000000"/>
        </g>
        <g transform="matrix(1.05,0,0,1.1,-74.600090008,-92.034420565)">
          <path d="M61.70270056287605,45.78012872978667 C27.611226398853738,28.912136782726378 13.598852493448101,13.016413699964648 1.7108298164974318,-0.0000000000003663654341125459 C-2.9013867024567555,-5.050000316783018 -14.519386279507732,-22.676691358232905 -17.673854335795312,-28.076920635657938 L-27.540003493368623,166.84007421247753 C29.641705880274323,198.5523261759666 97.51443951315684,212.3525484211955 166.051339250225,209.11325497803512" transform="matrix(0.939815172,0,0,0.942778413,1248.12552865,1189.926348289)" fill="url(#11194750890796850795)" stroke-width="5" stroke-linejoin="round" stroke="#000000"/>
        </g>
        <g transform="matrix(1.05,0,0,1.1,-74.600090008,-92.034420565)">
          <path d="M1071.0187254400003,1084.3623635399997 C1071.0187254400003,846.5636862042902 1071.0187254400003,541.9297789299999 1071.0187254400003,541.9297789299999 C1071.0187254400003,541.9297789299999 1249.7333924700004,541.9297789299999 1249.7333924700004,541.9297789299999 C1249.7333924700004,541.9297789299999 1249.7333924700004,949.6604672199999 1249.7333924700004,1189.9263482899999 C1249.7333931000003,1189.9274714499998 1249.7333937400003,1189.92859461 1249.7333943700003,1189.9297177699998 C1249.7341010700002,1190.7631247299998 1249.9972027700003,1345.9568768199997 1347.9496989800002,1387.2503594899997 C1313.2104235900003,1384.1679086799998 1280.1398951600002,1375.2294591799998 1249.73339288,1361.4303106699997 C1144.3954027238865,1313.6255820998783 1071.029865891841,1207.4849642939491 1071.018726708632,1084.3904018971566 C1071.0187258628835,1084.3810558756763 1071.0187254400003,1084.3717097566962 1071.0187254400003,1084.3623635399997 Z" fill="url(#6461996713604946034)" stroke-width="5" stroke-linejoin="round" stroke="#000000"/>
        </g>
        <g transform="matrix(1.05,0,0,1.1,-74.600090008,-92.034420565)">
          <path d="M1249.7333924685458,1045.9437936061322 L1249.7333924685458,541.92977893368 L1071.0187254368566,541.92977893368 L1071.0187254368566,1045.9437936061322" fill="url(#8361705244564380877)" stroke-width="5" stroke-linejoin="round" stroke="#000000"/>
        </g>
        <g transform="matrix(1.05,0,0,1.1,-74.600090008,-92.034420565)">
          <path d="M351.8119225241257,541.9297789336803 L530.5265895558143,541.9297789336803 L530.5265895558143,1351.4020943125047 L351.8119225241257,1351.4020943125047 L351.8119225241257,541.9297789336803 Z" fill="url(#2984554983185756690)" stroke-width="5" stroke-linejoin="round" stroke="#000000"/>
        </g>
        <g transform="matrix(1.05,0,0,1.1,-74.600090008,-92.034420565)">
          <path d="M0,0 C0,0 200.5761598597524,0 200.5761598597524,0 C200.5761598597524,0 462.5383611125839,513.8229433102393 462.5383611125839,513.8229433102393 C462.5383611125839,513.8229433102393 370.8678175318098,715.3153759778316 370.8678175318098,715.3153759778316 C370.8678175318098,715.3153759778316 0,0 0,0 Z" transform="matrix(1,0,0,1,352.85114189,541.929778934)" fill="url(#16446574381693081561)" stroke-width="5" stroke-linejoin="round" stroke="#000000"/>
        </g>
        <g transform="matrix(1.05,0,0,1.1,-74.600090008,-92.034420565)">
          <path d="M0,0 C-5,0 -200.57615985975235,0 -200.57615985975235,0 C-200.57615985975235,0 -526.0144330466761,715.3153759778321 -526.0144330466761,715.3153759778321 C-526.0144330466761,715.3153759778321 -359.34558093224956,715.3153759778307 -359.34558093224956,715.3153759778307 C-359.34558093224956,715.3153759778307 0,0 0,0 Z" transform="matrix(1,0,0,1,1249.733392469,541.929778934)" fill="#ede0c6" stroke-width="5" stroke-linejoin="round" stroke="#000000"/>
        </g>
        <g transform="matrix(1.05,0,0,1.1,-74.600090008,-92.034420565)">
          <g>
            <path d="M1719.5826099800001,1042.38609359 C1719.5826099800001,1042.38609359 1731.74535984,1054.56278346 1731.74535934,1054.56278455 C1690.7076392200001,1144.11907813 1673.91443736,1208.57809182 1681.36575329,1247.93982671 C1637.82831768,1260.03321212 1601.47280056,1282.63613213 1572.29920193,1315.74858675 C1539.32633618,1300.9738579500001 1476.8152322400001,1228.02926248 1472.7428159400001,1216.01336612 C1503.46328085,1185.1840865 1523.3814594,1147.95926591 1532.49735159,1104.33890434 C1571.71126292,1109.1535537500001 1634.07301572,1088.50261684 1719.5826099800001,1042.38609359 Z M1609.47092574,1155.78446422 C1600.33053372,1155.78446422 1592.90578587,1163.20921206 1592.90578587,1172.34960408 C1592.90578587,1181.4899961 1600.33053372,1188.91474395 1609.47092574,1188.91474395 C1618.61131776,1188.91474395 1626.0360656,1181.4899961 1626.0360656,1172.34960408 C1626.0360656,1163.20921206 1618.61131776,1155.78446422 1609.47092574,1155.78446422 Z" fill="#ede0c6" stroke-width="5" stroke-linejoin="round" stroke="#000000"/>
          </g>
          <g>
            <path d="M1725.6639849097246,1048.4744385218062 L1620.7978425536596,1160.2681466368401" fill="none" stroke-width="5" stroke="#000000"/>
          </g>
        </g>
        <g transform="matrix(1.05,0,0,1.1,-74.600090008,-92.034420565)">
          <path d="M1306.114662808518,1233.0868654201336 C1309.5543299780388,1234.8632046060434 1309.1346549676311,1234.6572708060814 1312.9887598643704,1236.0948539240273" fill="none" stroke-width="5" stroke-linecap="round" stroke="#000000"/>
        </g>
      </g>
    </g>
    <path d="M 1960.96 1405.87 L 1960.96 509.87 L 2081.28 509.87 L 2658.56 1221.55 L 2595.84 1221.55 L 2595.84 509.87 L 2743.04 509.87 L 2743.04 1405.87 L 2622.72 1405.87 L 2045.44 694.19 L 2108.16 694.19 L 2108.16 1405.87 Z M 3280.572 1413.55 Q 3176.892 1413.55 3096.252 1368.75 Q 3015.612 1323.95 2968.892 1245.23 Q 2922.172 1166.51 2922.172 1065.39 Q 2922.172 962.99 2968.892 884.91 Q 3015.612 806.83 3096.252 762.03 Q 3176.892 717.23 3280.572 717.23 Q 3384.252 717.23 3465.532 762.03 Q 3546.812 806.83 3592.892 884.91 Q 3638.972 962.99 3638.972 1065.39 Q 3638.972 1166.51 3592.892 1245.23 Q 3546.812 1323.95 3464.892 1368.75 Q 3382.972 1413.55 3280.572 1413.55 Z M 3280.572 1289.39 Q 3343.292 1289.39 3391.932 1262.51 Q 3440.572 1235.63 3468.732 1184.43 Q 3496.892 1133.23 3496.892 1065.39 Q 3496.892 996.27 3468.732 945.71 Q 3440.572 895.15 3391.932 868.27 Q 3343.292 841.39 3280.572 841.39 Q 3219.132 841.39 3171.132 868.27 Q 3123.132 895.15 3094.332 945.71 Q 3065.532 996.27 3065.532 1065.39 Q 3065.532 1133.23 3094.332 1184.43 Q 3123.132 1235.63 3171.132 1262.51 Q 3219.132 1289.39 3280.572 1289.39 Z M 4046.023 1413.55 Q 3938.503 1413.55 3879.623 1357.23 Q 3820.743 1300.91 3820.743 1192.11 L 3820.743 575.15 L 3962.823 575.15 L 3962.823 1188.27 Q 3962.823 1239.47 3989.063 1266.99 Q 4015.303 1294.51 4062.663 1294.51 Q 4117.703 1294.51 4154.823 1265.07 L 4197.063 1367.47 Q 4168.903 1390.51 4128.583 1402.03 Q 4088.263 1413.55 4046.023 1413.55 Z M 3706.823 841.39 L 3706.823 724.91 L 4150.983 724.91 L 4150.983 841.39 Z M 4625.827 1413.55 Q 4514.467 1413.55 4430.627 1368.75 Q 4346.787 1323.95 4300.707 1245.23 Q 4254.627 1166.51 4254.627 1065.39 Q 4254.627 964.27 4299.427 885.55 Q 4344.227 806.83 4422.947 762.03 Q 4501.667 717.23 4601.507 717.23 Q 4701.347 717.23 4778.147 761.39 Q 4854.947 805.55 4898.467 884.91 Q 4941.987 964.27 4941.987 1070.51 Q 4941.987 1079.47 4941.347 1091.63 Q 4940.707 1103.79 4939.427 1114.03 L 4367.267 1114.03 L 4367.267 1012.91 L 4865.187 1012.91 L 4808.867 1046.19 Q 4810.147 984.75 4783.267 937.39 Q 4756.387 890.03 4709.667 863.15 Q 4662.947 836.27 4601.507 836.27 Q 4540.067 836.27 4493.347 863.15 Q 4446.627 890.03 4420.387 938.03 Q 4394.147 986.03 4394.147 1050.03 L 4394.147 1073.07 Q 4394.147 1137.07 4423.587 1186.35 Q 4453.027 1235.63 4506.147 1262.51 Q 4559.267 1289.39 4629.667 1289.39 Q 4688.547 1289.39 4736.547 1270.19 Q 4784.547 1250.99 4820.387 1212.59 L 4897.187 1303.47 Q 4851.107 1357.23 4781.987 1385.39 Q 4712.867 1413.55 4625.827 1413.55 Z M 5306.759 1413.55 Q 5220.999 1413.55 5143.559 1391.15 Q 5066.119 1368.75 5021.319 1336.75 L 5080.199 1225.39 Q 5124.999 1254.83 5188.999 1273.39 Q 5252.999 1291.95 5316.999 1291.95 Q 5396.359 1291.95 5432.199 1270.83 Q 5468.039 1249.71 5468.039 1211.31 Q 5468.039 1181.87 5444.999 1165.87 Q 5421.959 1149.87 5384.199 1141.55 Q 5346.439 1133.23 5300.999 1126.83 Q 5255.559 1120.43 5210.119 1109.55 Q 5164.679 1098.67 5126.919 1078.19 Q 5089.159 1057.71 5066.119 1021.87 Q 5043.079 986.03 5043.079 927.15 Q 5043.079 863.15 5079.559 815.79 Q 5116.039 768.43 5181.319 742.83 Q 5246.599 717.23 5334.919 717.23 Q 5402.759 717.23 5472.519 733.23 Q 5542.279 749.23 5588.359 777.39 L 5528.199 888.75 Q 5480.839 859.31 5431.559 848.43 Q 5382.279 837.55 5333.639 837.55 Q 5258.119 837.55 5220.999 860.59 Q 5183.879 883.63 5183.879 920.75 Q 5183.879 952.75 5206.919 969.39 Q 5229.959 986.03 5267.719 995.63 Q 5305.479 1005.23 5350.919 1011.63 Q 5396.359 1018.03 5441.799 1028.91 Q 5487.239 1039.79 5524.999 1059.63 Q 5562.759 1079.47 5585.799 1114.67 Q 5608.839 1149.87 5608.839 1207.47 Q 5608.839 1271.47 5571.079 1317.55 Q 5533.319 1363.63 5466.119 1388.59 Q 5398.919 1413.55 5306.759 1413.55 Z" style="fill: rgb(60, 47, 36); paint-order: fill; stroke: rgb(0, 0, 0); stroke-width: 0px; text-wrap-mode: nowrap;"/>
  </g>
</svg>